<svg width="14" height="14" viewBox="0 0 14 14" fill="none" xmlns="http://www.w3.org/2000/svg">
<g clip-path="url(#clip0_85_884)">
<path d="M13.9773 9.4331C13.9988 9.37535 14.0064 9.31177 13.9866 9.2476L12.8333 5.49967V2.0417C12.8333 1.23787 12.1794 0.583374 11.375 0.583374H2.625C1.82057 0.583374 1.16668 1.23787 1.16668 2.0417V5.4997L0.0134258 9.2476C-0.00639844 9.31117 0.00117578 9.37477 0.02275 9.4331C0.00875 9.49495 0 9.55852 0 9.62502V11.9583V13.125C0 13.286 0.130676 13.4167 0.291676 13.4167H1.45835C1.61932 13.4167 1.75 13.286 1.75 13.125V12.25H12.25V13.125C12.25 13.286 12.3807 13.4167 12.5417 13.4167H13.7084C13.8694 13.4167 14 13.286 14 13.125V11.9583V9.62502C14 9.55852 13.9913 9.49495 13.9773 9.4331ZM1.75 2.0417C1.75 1.55927 2.14257 1.1667 2.625 1.1667H11.375C11.8574 1.1667 12.25 1.55927 12.25 2.0417V5.25002H11.4572L11.1854 4.1627C11.0874 3.77245 10.738 3.50002 10.3361 3.50002H8.45832C7.9759 3.50002 7.58332 3.8926 7.58332 4.37502V5.25002H6.41665V4.3756C6.41665 3.89317 6.02407 3.5006 5.54165 3.5006H3.6639C3.26197 3.5006 2.91257 3.7736 2.81457 4.16327L2.54275 5.25002H1.75V2.0417ZM10.8582 5.72135C10.8022 5.79252 10.7182 5.83335 10.6278 5.83335H8.45832C8.2979 5.83335 8.16665 5.70267 8.16665 5.54167V4.37502C8.16665 4.21402 8.2979 4.08335 8.45832 4.08335H10.3366C10.4708 4.08335 10.5869 4.17377 10.6196 4.30385L10.9113 5.47052C10.9334 5.5586 10.9142 5.6496 10.8582 5.72135ZM5.83393 4.37502V5.53877C5.83393 5.53995 5.83335 5.54052 5.83335 5.5417C5.83335 5.54227 5.83335 5.54287 5.83335 5.54287C5.83278 5.7033 5.7021 5.83337 5.54228 5.83337H3.37285C3.28185 5.83337 3.19843 5.79255 3.14243 5.72137C3.08643 5.64962 3.06718 5.55805 3.08935 5.47055L3.38103 4.30387C3.4137 4.17437 3.52978 4.08337 3.66453 4.08337H5.54228C5.70268 4.08335 5.83393 4.21402 5.83393 4.37502ZM1.67357 5.83335H2.5515C2.58243 5.92085 2.62268 6.00485 2.68157 6.08067C2.84957 6.29417 3.101 6.41667 3.37225 6.41667H5.54168C5.92143 6.41667 6.24225 6.17167 6.363 5.83335H7.637C7.75775 6.17227 8.07857 6.41667 8.45832 6.41667H10.6278C10.899 6.41667 11.1498 6.29417 11.3178 6.08067C11.3767 6.00542 11.417 5.92085 11.4479 5.83335H12.3264L13.2271 8.76052C13.1932 8.75645 13.16 8.75002 13.125 8.75002H0.875C0.84 8.75002 0.80675 8.75645 0.7735 8.76052L1.67357 5.83335ZM1.16668 12.8333H0.583324V12.25H1.16665V12.8333H1.16668ZM13.4167 12.8333H12.8334V12.25H13.4167V12.8333ZM13.4167 11.6667H0.583324V9.62502C0.583324 9.46402 0.714574 9.33335 0.875 9.33335H13.125C13.2854 9.33335 13.4167 9.46402 13.4167 9.62502V11.6667Z" fill="#123E56"/>
</g>
<defs>
<clipPath id="clip0_85_884">
<rect width="14" height="14" fill="white"/>
</clipPath>
</defs>
</svg>
